# xmcd
# 
# Track frame offsets:
#     150
#     20217
#     40567
#     61930
#     79995
#     100280
#     121570
#     137817
#     142020
#     162157
#     183505
#     203320
#     207190
# 
# Disc length: 3065
# 
# Revision: 1
# Processed by: cddbd v1.5.2PL0 Copyright (c) Steve Scherf et al.
# Submitted via: BonkEnc v1.0.6
# 
DISCID=ad0bf70d
DTITLE=Mystic Prophecy - Regressus
DYEAR=2003
DGENRE=Metal
TTITLE0=Mystic Prophecy
TTITLE1=Calling From Hell
TTITLE2=Eternal Flame
TTITLE3=The Sign of the Cross
TTITLE4=Lords of Pain 
TTITLE5=When Demon's Return
TTITLE6=Forgotten Soul
TTITLE7=Regressus
TTITLE8=Lost In Time
TTITLE9=Land of the Dead
TTITLE10=Night of the Storm
TTITLE11=The Traveller
TTITLE12=In Your Sins
EXTD=YEAR: 2003
EXTT0=
EXTT1=
EXTT2=
EXTT3=
EXTT4=
EXTT5=
EXTT6=
EXTT7=
EXTT8=
EXTT9=
EXTT10=
EXTT11=
EXTT12=
PLAYORDER=
